<svg xmlns="http://www.w3.org/2000/svg" viewBox="0 0 400 400" xmlns:v="https://vecta.io/nano"><path d="M0 0h400v400H0z" fill="#eee"/><path d="M195.247 216.763q-.049-1.758-.049-2.637 0-5.176 1.465-8.936 1.074-2.832 3.467-5.713 1.758-2.1 6.323-6.128 4.565-4.028 5.933-6.421 1.367-2.393 1.367-5.225 0-5.127-4.004-9.009-4.004-3.882-9.814-3.882-5.615 0-9.375 3.516-3.76 3.516-4.932 10.986l-9.033-1.074q1.221-10.01 7.251-15.332 6.03-5.322 15.942-5.322 10.498 0 16.748 5.713 6.25 5.713 6.25 13.818 0 4.688-2.197 8.643-2.197 3.955-8.594 9.619-4.297 3.809-5.615 5.615-1.318 1.807-1.953 4.15-.635 2.344-.732 7.617zm-.537 17.627v-10.01h10.01v10.01z" fill="#333"/><path d="M0 400l150-150m100 0l150 150M250 150L400 0M0 0l150 150" fill="#d8d8d8" stroke-width="5" stroke="#333" stroke-linecap="round"/></svg>